<svg width="100" height="100" viewBox="0 0 100 100" fill="none" xmlns="http://www.w3.org/2000/svg">
<circle cx="50" cy="50" r="50" fill="#FF7500" fill-opacity="0.2"/>
<path d="M30.6809 27.3522C30.2807 25.8585 28.7453 24.9721 27.2516 25.3723C25.7579 25.7726 24.8715 27.3079 25.2717 28.8016L25.9964 31.5062C26.3967 32.9999 27.932 33.8864 29.4257 33.4861C30.9194 33.0859 31.8058 31.5505 31.4056 30.0568L30.6809 27.3522Z" fill="#FF7500"/>
<path d="M18.8015 35.2718C17.3078 34.8716 15.7725 35.758 15.3722 37.2517C14.972 38.7454 15.8584 40.2808 17.3521 40.681L20.0567 41.4057C21.5504 41.806 23.0858 40.9195 23.486 39.4258C23.8862 37.9321 22.9998 36.3968 21.5061 35.9965L18.8015 35.2718Z" fill="#FF7500"/>
<path d="M43.4792 33.6803C44.5726 32.5868 44.5726 30.814 43.4792 29.7205C42.3857 28.627 40.6128 28.627 39.5194 29.7205L37.5395 31.7004C36.446 32.7939 36.446 34.5667 37.5395 35.6602C38.6329 36.7537 40.4058 36.7537 41.4993 35.6602L43.4792 33.6803Z" fill="#FF7500"/>
<path d="M23.6802 53.4793L25.6601 51.4994C26.7536 50.4059 26.7536 48.6331 25.6601 47.5396C24.5666 46.4461 22.7938 46.4461 21.7003 47.5396L19.7204 49.5195C18.6269 50.613 18.6269 52.3858 19.7204 53.4793C20.8139 54.5728 22.5867 54.5728 23.6802 53.4793Z" fill="#FF7500"/>
<path d="M32.64 39.0004C31.6 38.5844 30.4122 38.8282 29.6202 39.6202C28.8282 40.4122 28.5844 41.6 29.0003 42.64L40.2003 70.64C40.6098 71.6638 41.582 72.3519 42.6837 72.3977C43.7854 72.4435 44.8114 71.8385 45.3045 70.8523L49.1671 63.127L57.6202 71.58C58.7136 72.6735 60.4865 72.6735 61.58 71.58C62.6735 70.4865 62.6735 68.7137 61.58 67.6202L53.1269 59.1672L60.8523 55.3045C61.8385 54.8114 62.4435 53.7854 62.3977 52.6837C62.3518 51.5821 61.6637 50.6099 60.64 50.2004L32.64 39.0004Z" fill="#FF7500"/>
</svg>
